<svg width="61" height="21" viewBox="0 0 61 21" fill="none" xmlns="http://www.w3.org/2000/svg">
<path fill-rule="evenodd" clip-rule="evenodd" d="M5.3335 11.5007C5.3335 11.1325 5.63197 10.834 6.00016 10.834H10.0002C10.3684 10.834 10.6668 11.1325 10.6668 11.5007C10.6668 11.8688 10.3684 12.1673 10.0002 12.1673H6.00016C5.63197 12.1673 5.3335 11.8688 5.3335 11.5007Z" fill="#424551"/>
<path fill-rule="evenodd" clip-rule="evenodd" d="M5.3335 14.0007C5.3335 13.6325 5.63197 13.334 6.00016 13.334H8.00016C8.36835 13.334 8.66683 13.6325 8.66683 14.0007C8.66683 14.3688 8.36835 14.6673 8.00016 14.6673H6.00016C5.63197 14.6673 5.3335 14.3688 5.3335 14.0007Z" fill="#424551"/>
<path fill-rule="evenodd" clip-rule="evenodd" d="M6.02877 3.52925C6.1538 3.40422 6.32337 3.33398 6.50018 3.33398H11.0002C12.4729 3.33398 13.6668 4.52789 13.6668 6.00065L13.6668 15.0007C13.6668 16.4734 12.4729 17.6673 11.0002 17.6673H5.00016C3.5274 17.6673 2.33349 16.4734 2.3335 15.0006L2.33351 7.50065C2.33351 7.32384 2.40375 7.15427 2.52877 7.02925L6.02877 3.52925ZM6.33349 5.11015V7.33398H4.10965L6.33349 5.11015ZM3.66684 8.66732L3.66683 15.0006C3.66683 15.737 4.26378 16.334 5.00016 16.334H11.0002C11.7366 16.334 12.3335 15.737 12.3335 15.0007L12.3335 6.00065C12.3335 5.26427 11.7366 4.66732 11.0002 4.66732H7.66682V8.00065C7.66682 8.36884 7.36835 8.66732 7.00016 8.66732H3.66684Z" fill="#424551"/>
<path d="M26.608 12.276L25.033 8.195C24.9863 8.07367 24.9373 7.93367 24.886 7.775C24.8347 7.61167 24.7857 7.439 24.739 7.257C24.641 7.635 24.5407 7.95 24.438 8.202L22.863 12.276H26.608ZM29.436 16H28.386C28.2647 16 28.1667 15.9697 28.092 15.909C28.0173 15.8483 27.9613 15.7713 27.924 15.678L26.986 13.256H22.485L21.547 15.678C21.519 15.762 21.4653 15.8367 21.386 15.902C21.3067 15.9673 21.2087 16 21.092 16H20.042L24.053 5.969H25.425L29.436 16ZM31.6173 10.33C31.8413 9.84467 32.1166 9.46667 32.4433 9.196C32.7699 8.92067 33.1689 8.783 33.6403 8.783C33.7896 8.783 33.9319 8.79933 34.0673 8.832C34.2073 8.86467 34.3309 8.916 34.4383 8.986L34.3473 9.917C34.3193 10.0337 34.2493 10.092 34.1373 10.092C34.0719 10.092 33.9763 10.078 33.8503 10.05C33.7243 10.022 33.5819 10.008 33.4233 10.008C33.1993 10.008 32.9986 10.0407 32.8213 10.106C32.6486 10.1713 32.4923 10.2693 32.3523 10.4C32.2169 10.526 32.0933 10.6847 31.9813 10.876C31.8739 11.0627 31.7759 11.2773 31.6873 11.52V16H30.4343V8.909H31.1483C31.2836 8.909 31.3769 8.93467 31.4283 8.986C31.4796 9.03733 31.5146 9.126 31.5333 9.252L31.6173 10.33ZM42.1139 16H40.8679V9.952H37.2139V14.208C37.2139 14.5067 37.2862 14.7283 37.4309 14.873C37.5755 15.0177 37.7622 15.09 37.9909 15.09C38.1215 15.09 38.2335 15.0737 38.3269 15.041C38.4249 15.0037 38.5089 14.964 38.5789 14.922C38.6489 14.88 38.7072 14.8427 38.7539 14.81C38.8052 14.7727 38.8495 14.754 38.8869 14.754C38.9522 14.754 39.0105 14.7937 39.0619 14.873L39.4259 15.468C39.2112 15.6687 38.9522 15.8273 38.6489 15.944C38.3455 16.056 38.0329 16.112 37.7109 16.112C37.1509 16.112 36.7192 15.9557 36.4159 15.643C36.1172 15.3303 35.9679 14.88 35.9679 14.292V9.952H35.1139C35.0392 9.952 34.9762 9.931 34.9249 9.889C34.8735 9.84233 34.8479 9.77233 34.8479 9.679V9.182L36.0099 9.028L36.2969 6.844C36.3109 6.774 36.3412 6.718 36.3879 6.676C36.4392 6.62933 36.5045 6.606 36.5839 6.606H37.2139V9.049H42.1139V16ZM42.4219 6.634C42.4219 6.75533 42.3962 6.86967 42.3449 6.977C42.2982 7.07967 42.2329 7.17067 42.1489 7.25C42.0695 7.32933 41.9762 7.39233 41.8689 7.439C41.7615 7.48567 41.6472 7.509 41.5259 7.509C41.4045 7.509 41.2902 7.48567 41.1829 7.439C41.0802 7.39233 40.9892 7.32933 40.9099 7.25C40.8305 7.17067 40.7675 7.07967 40.7209 6.977C40.6742 6.86967 40.6509 6.75533 40.6509 6.634C40.6509 6.51267 40.6742 6.39833 40.7209 6.291C40.7675 6.179 40.8305 6.08333 40.9099 6.004C40.9892 5.92 41.0802 5.85467 41.1829 5.808C41.2902 5.76133 41.4045 5.738 41.5259 5.738C41.6472 5.738 41.7615 5.76133 41.8689 5.808C41.9762 5.85467 42.0695 5.92 42.1489 6.004C42.2329 6.08333 42.2982 6.179 42.3449 6.291C42.3962 6.39833 42.4219 6.51267 42.4219 6.634ZM49.0958 10.169C49.0585 10.2203 49.0212 10.26 48.9838 10.288C48.9465 10.316 48.8952 10.33 48.8298 10.33C48.7598 10.33 48.6828 10.302 48.5988 10.246C48.5148 10.1853 48.4098 10.12 48.2838 10.05C48.1625 9.98 48.0108 9.917 47.8288 9.861C47.6515 9.80033 47.4322 9.77 47.1708 9.77C46.8208 9.77 46.5128 9.833 46.2468 9.959C45.9808 10.0803 45.7568 10.2577 45.5748 10.491C45.3975 10.7243 45.2622 11.0067 45.1688 11.338C45.0802 11.6693 45.0358 12.0403 45.0358 12.451C45.0358 12.8803 45.0848 13.263 45.1828 13.599C45.2808 13.9303 45.4185 14.2103 45.5958 14.439C45.7778 14.663 45.9948 14.8357 46.2468 14.957C46.5035 15.0737 46.7905 15.132 47.1078 15.132C47.4112 15.132 47.6608 15.097 47.8568 15.027C48.0528 14.9523 48.2138 14.8707 48.3398 14.782C48.4705 14.6933 48.5778 14.614 48.6618 14.544C48.7505 14.4693 48.8368 14.432 48.9208 14.432C49.0235 14.432 49.1028 14.4717 49.1588 14.551L49.5088 15.006C49.3548 15.1973 49.1798 15.3607 48.9838 15.496C48.7878 15.6313 48.5755 15.7457 48.3468 15.839C48.1228 15.9277 47.8872 15.993 47.6398 16.035C47.3925 16.077 47.1405 16.098 46.8838 16.098C46.4405 16.098 46.0275 16.0163 45.6448 15.853C45.2668 15.6897 44.9378 15.454 44.6578 15.146C44.3778 14.8333 44.1585 14.4507 43.9998 13.998C43.8412 13.5453 43.7618 13.0297 43.7618 12.451C43.7618 11.9237 43.8342 11.436 43.9788 10.988C44.1282 10.54 44.3428 10.155 44.6228 9.833C44.9075 9.50633 45.2552 9.252 45.6658 9.07C46.0812 8.888 46.5572 8.797 47.0938 8.797C47.5932 8.797 48.0318 8.87867 48.4098 9.042C48.7925 9.20067 49.1308 9.427 49.4248 9.721L49.0958 10.169ZM52.1344 5.689V16H50.8884V5.689H52.1344ZM58.901 11.681C58.901 11.3917 58.859 11.128 58.775 10.89C58.6956 10.6473 58.5766 10.4397 58.418 10.267C58.264 10.0897 58.075 9.95433 57.851 9.861C57.627 9.763 57.3726 9.714 57.088 9.714C56.4906 9.714 56.017 9.889 55.667 10.239C55.3216 10.5843 55.107 11.065 55.023 11.681H58.901ZM59.909 15.006C59.755 15.1927 59.5706 15.356 59.356 15.496C59.1413 15.6313 58.9103 15.7433 58.663 15.832C58.4203 15.9207 58.1683 15.986 57.907 16.028C57.6456 16.0747 57.3866 16.098 57.13 16.098C56.64 16.098 56.1873 16.0163 55.772 15.853C55.3613 15.685 55.0043 15.4423 54.701 15.125C54.4023 14.803 54.169 14.4063 54.001 13.935C53.833 13.4637 53.749 12.9223 53.749 12.311C53.749 11.8163 53.8236 11.3543 53.973 10.925C54.127 10.4957 54.3463 10.1247 54.631 9.812C54.9156 9.49467 55.2633 9.24733 55.674 9.07C56.0846 8.888 56.5466 8.797 57.06 8.797C57.4846 8.797 57.8766 8.86933 58.236 9.014C58.6 9.154 58.9126 9.35933 59.174 9.63C59.44 9.896 59.6476 10.2273 59.797 10.624C59.9463 11.016 60.021 11.464 60.021 11.968C60.021 12.164 60 12.2947 59.958 12.36C59.916 12.4253 59.8366 12.458 59.72 12.458H54.981C54.995 12.906 55.0556 13.2957 55.163 13.627C55.275 13.9583 55.429 14.236 55.625 14.46C55.821 14.6793 56.0543 14.845 56.325 14.957C56.5956 15.0643 56.899 15.118 57.235 15.118C57.5476 15.118 57.816 15.083 58.04 15.013C58.2686 14.9383 58.4646 14.859 58.628 14.775C58.7913 14.691 58.9266 14.614 59.034 14.544C59.146 14.4693 59.2416 14.432 59.321 14.432C59.4236 14.432 59.503 14.4717 59.559 14.551L59.909 15.006Z" fill="#424551"/>
</svg>
