<svg width="57" height="21" viewBox="0 0 57 21" fill="none" xmlns="http://www.w3.org/2000/svg">
<path fill-rule="evenodd" clip-rule="evenodd" d="M10.7117 9.44002C11.4099 9.97368 11.4099 11.0251 10.7117 11.5587L7.65841 13.8924C6.78101 14.5629 5.51541 13.9373 5.51541 12.833V8.16575C5.51541 7.06144 6.78101 6.43581 7.65841 7.1064L10.7117 9.44002ZM9.90204 10.4994L6.84875 8.16575L6.84875 12.833L9.90204 10.4994Z" fill="#424551"/>
<path fill-rule="evenodd" clip-rule="evenodd" d="M7.99984 4.49935C4.68613 4.49935 1.99984 7.18564 1.99984 10.4993C1.99984 13.8131 4.68613 16.4993 7.99984 16.4993C11.3135 16.4993 13.9998 13.8131 13.9998 10.4993C13.9998 7.18564 11.3135 4.49935 7.99984 4.49935ZM0.666504 10.4993C0.666504 6.44926 3.94975 3.16602 7.99984 3.16602C12.0499 3.16602 15.3332 6.44926 15.3332 10.4993C15.3332 14.5494 12.0499 17.8327 7.99984 17.8327C3.94975 17.8327 0.666504 14.5494 0.666504 10.4993Z" fill="#424551"/>
<path d="M29.436 5.969L25.348 16H24.13L20.042 5.969H21.127C21.2483 5.969 21.3463 5.99933 21.421 6.06C21.4957 6.12067 21.5517 6.19767 21.589 6.291L24.417 13.368C24.4777 13.5267 24.536 13.6993 24.592 13.886C24.6527 14.0727 24.7063 14.2687 24.753 14.474C24.7997 14.2687 24.8487 14.0727 24.9 13.886C24.9513 13.6993 25.0073 13.5267 25.068 13.368L27.889 6.291C27.917 6.21167 27.9707 6.13933 28.05 6.074C28.134 6.004 28.2343 5.969 28.351 5.969H29.436ZM31.7776 8.909V16H30.5316V8.909H31.7776ZM32.0436 6.683C32.0436 6.80433 32.0179 6.91867 31.9666 7.026C31.9199 7.12867 31.8546 7.222 31.7706 7.306C31.6913 7.38533 31.5956 7.44833 31.4836 7.495C31.3763 7.54167 31.2619 7.565 31.1406 7.565C31.0193 7.565 30.9049 7.54167 30.7976 7.495C30.6949 7.44833 30.6039 7.38533 30.5246 7.306C30.4453 7.222 30.3823 7.12867 30.3356 7.026C30.2889 6.91867 30.2656 6.80433 30.2656 6.683C30.2656 6.56167 30.2889 6.44733 30.3356 6.34C30.3823 6.228 30.4453 6.13233 30.5246 6.053C30.6039 5.969 30.6949 5.90367 30.7976 5.857C30.9049 5.81033 31.0193 5.787 31.1406 5.787C31.2619 5.787 31.3763 5.81033 31.4836 5.857C31.5956 5.90367 31.6913 5.969 31.7706 6.053C31.8546 6.13233 31.9199 6.228 31.9666 6.34C32.0179 6.44733 32.0436 6.56167 32.0436 6.683ZM38.4449 10.596C38.2116 10.2833 37.9596 10.0663 37.6889 9.945C37.4182 9.819 37.1149 9.756 36.7789 9.756C36.1209 9.756 35.6146 9.99167 35.2599 10.463C34.9052 10.9343 34.7279 11.6063 34.7279 12.479C34.7279 12.941 34.7676 13.3377 34.8469 13.669C34.9262 13.9957 35.0429 14.2663 35.1969 14.481C35.3509 14.691 35.5399 14.845 35.7639 14.943C35.9879 15.041 36.2422 15.09 36.5269 15.09C36.9376 15.09 37.2946 14.9967 37.5979 14.81C37.9059 14.6233 38.1882 14.3597 38.4449 14.019V10.596ZM39.6909 5.689V16H38.9489C38.7716 16 38.6596 15.9137 38.6129 15.741L38.5009 14.88C38.1976 15.244 37.8522 15.538 37.4649 15.762C37.0776 15.986 36.6296 16.098 36.1209 16.098C35.7149 16.098 35.3462 16.021 35.0149 15.867C34.6836 15.7083 34.4012 15.4773 34.1679 15.174C33.9346 14.8707 33.7549 14.4927 33.6289 14.04C33.5029 13.5873 33.4399 13.067 33.4399 12.479C33.4399 11.9563 33.5099 11.471 33.6499 11.023C33.7899 10.5703 33.9906 10.1783 34.2519 9.847C34.5132 9.51567 34.8329 9.25667 35.2109 9.07C35.5936 8.87867 36.0229 8.783 36.4989 8.783C36.9329 8.783 37.3039 8.85767 37.6119 9.007C37.9246 9.15167 38.2022 9.35467 38.4449 9.616V5.689H39.6909ZM46.4049 11.681C46.4049 11.3917 46.3629 11.128 46.2789 10.89C46.1995 10.6473 46.0805 10.4397 45.9219 10.267C45.7679 10.0897 45.5789 9.95433 45.3549 9.861C45.1309 9.763 44.8765 9.714 44.5919 9.714C43.9945 9.714 43.5209 9.889 43.1709 10.239C42.8255 10.5843 42.6109 11.065 42.5269 11.681H46.4049ZM47.4129 15.006C47.2589 15.1927 47.0745 15.356 46.8599 15.496C46.6452 15.6313 46.4142 15.7433 46.1669 15.832C45.9242 15.9207 45.6722 15.986 45.4109 16.028C45.1495 16.0747 44.8905 16.098 44.6339 16.098C44.1439 16.098 43.6912 16.0163 43.2759 15.853C42.8652 15.685 42.5082 15.4423 42.2049 15.125C41.9062 14.803 41.6729 14.4063 41.5049 13.935C41.3369 13.4637 41.2529 12.9223 41.2529 12.311C41.2529 11.8163 41.3275 11.3543 41.4769 10.925C41.6309 10.4957 41.8502 10.1247 42.1349 9.812C42.4195 9.49467 42.7672 9.24733 43.1779 9.07C43.5885 8.888 44.0505 8.797 44.5639 8.797C44.9885 8.797 45.3805 8.86933 45.7399 9.014C46.1039 9.154 46.4165 9.35933 46.6779 9.63C46.9439 9.896 47.1515 10.2273 47.3009 10.624C47.4502 11.016 47.5249 11.464 47.5249 11.968C47.5249 12.164 47.5039 12.2947 47.4619 12.36C47.4199 12.4253 47.3405 12.458 47.2239 12.458H42.4849C42.4989 12.906 42.5595 13.2957 42.6669 13.627C42.7789 13.9583 42.9329 14.236 43.1289 14.46C43.3249 14.6793 43.5582 14.845 43.8289 14.957C44.0995 15.0643 44.4029 15.118 44.7389 15.118C45.0515 15.118 45.3199 15.083 45.5439 15.013C45.7725 14.9383 45.9685 14.859 46.1319 14.775C46.2952 14.691 46.4305 14.614 46.5379 14.544C46.6499 14.4693 46.7455 14.432 46.8249 14.432C46.9275 14.432 47.0069 14.4717 47.0629 14.551L47.4129 15.006ZM52.0444 8.797C52.5624 8.797 53.029 8.88333 53.4444 9.056C53.8597 9.22867 54.2144 9.47367 54.5084 9.791C54.8024 10.1083 55.0264 10.4933 55.1804 10.946C55.339 11.394 55.4184 11.8957 55.4184 12.451C55.4184 13.011 55.339 13.515 55.1804 13.963C55.0264 14.411 54.8024 14.7937 54.5084 15.111C54.2144 15.4283 53.8597 15.6733 53.4444 15.846C53.029 16.014 52.5624 16.098 52.0444 16.098C51.5217 16.098 51.0504 16.014 50.6304 15.846C50.215 15.6733 49.8604 15.4283 49.5664 15.111C49.2724 14.7937 49.046 14.411 48.8874 13.963C48.7334 13.515 48.6564 13.011 48.6564 12.451C48.6564 11.8957 48.7334 11.394 48.8874 10.946C49.046 10.4933 49.2724 10.1083 49.5664 9.791C49.8604 9.47367 50.215 9.22867 50.6304 9.056C51.0504 8.88333 51.5217 8.797 52.0444 8.797ZM52.0444 15.125C52.7444 15.125 53.267 14.8917 53.6124 14.425C53.9577 13.9537 54.1304 13.298 54.1304 12.458C54.1304 11.6133 53.9577 10.9553 53.6124 10.484C53.267 10.0127 52.7444 9.777 52.0444 9.777C51.6897 9.777 51.3794 9.83767 51.1134 9.959C50.852 10.0803 50.6327 10.2553 50.4554 10.484C50.2827 10.7127 50.152 10.995 50.0634 11.331C49.9794 11.6623 49.9374 12.038 49.9374 12.458C49.9374 13.298 50.11 13.9537 50.4554 14.425C50.8054 14.8917 51.335 15.125 52.0444 15.125Z" fill="#424551"/>
</svg>
